<?xml version="1.0" standalone="no"?>
<!DOCTYPE svg PUBLIC "-//W3C//DTD SVG 20010904//EN"
 "http://www.w3.org/TR/2001/REC-SVG-20010904/DTD/svg10.dtd">
<svg version="1.0" xmlns="http://www.w3.org/2000/svg"
 width="1687.000000pt" height="416.000000pt" viewBox="0 0 1687.000000 416.000000"
 preserveAspectRatio="xMidYMid meet">

<g transform="translate(0.000000,416.000000) scale(0.100000,-0.100000)"
fill="#000000" stroke="none">
<path d="M6522 3259 c-13 -5 -49 -36 -81 -70 -52 -54 -61 -60 -79 -50 -11 6
-30 11 -40 11 -22 0 -122 -103 -122 -126 0 -20 14 -17 36 7 35 38 52 42 90 20
66 -39 129 -22 207 55 60 59 76 123 39 152 -18 14 -19 14 -50 1z m22 -94 c-1
-15 -75 -55 -101 -55 -31 0 -29 13 8 45 23 18 41 25 63 23 17 -2 31 -7 30 -13z"/>
<path d="M9565 3252 c-17 -11 -52 -43 -78 -72 -45 -50 -49 -52 -73 -40 -36 20
-71 4 -121 -58 -56 -69 -58 -98 -3 -48 22 20 42 36 45 36 3 0 23 -9 45 -20 22
-11 54 -20 72 -20 57 0 144 64 179 132 23 45 24 71 3 92 -20 21 -32 20 -69 -2z
m35 -81 c0 -17 -59 -52 -97 -58 l-38 -6 34 37 c27 27 43 36 68 36 18 0 33 -4
33 -9z"/>
<path d="M11455 3255 c-16 -8 -53 -41 -81 -71 -45 -50 -53 -55 -72 -45 -37 20
-58 12 -104 -37 -78 -83 -86 -120 -14 -63 38 30 45 31 96 4 54 -28 115 -10
183 56 67 63 89 138 48 161 -24 12 -20 13 -56 -5z m29 -90 c-2 -17 -77 -55
-109 -55 l-30 1 38 35 c30 28 45 35 70 32 18 -2 32 -7 31 -13z"/>
<path d="M10460 2964 c-231 -109 -313 -152 -337 -179 -30 -31 -43 -65 -27 -65
7 0 518 237 605 281 43 21 59 36 68 60 13 37 14 49 4 48 -5 0 -145 -66 -313
-145z"/>
<path d="M5396 2910 c-204 -92 -384 -177 -402 -189 -30 -21 -63 -76 -52 -87 3
-2 151 61 329 142 178 81 358 162 399 180 41 18 85 42 98 53 23 21 31 72 10
70 -7 -1 -179 -77 -382 -169z"/>
<path d="M6001 3029 c-28 -63 -37 -139 -22 -168 7 -12 14 -54 17 -94 2 -40 11
-126 20 -192 14 -113 27 -193 88 -545 13 -80 26 -171 29 -203 4 -55 2 -59 -27
-80 -42 -30 -149 -36 -211 -12 -45 16 -115 85 -115 112 0 7 -5 13 -11 13 -15
0 -47 -78 -55 -137 l-6 -52 50 -53 51 -53 -17 -50 c-58 -171 -245 -338 -431
-386 -94 -24 -281 -36 -335 -21 -43 12 -77 3 -54 -15 30 -24 383 -103 457
-103 98 0 262 131 340 270 45 81 91 213 91 261 0 23 4 29 23 30 12 0 29 2 37
3 8 2 41 6 73 10 62 7 121 32 149 63 61 67 63 323 4 668 -30 178 -48 303 -70
472 -3 20 0 33 9 36 7 3 22 34 34 68 l21 62 -50 53 c-28 29 -50 60 -50 68 0
34 -19 22 -39 -25z"/>
<path d="M7355 2939 c-306 -143 -365 -180 -365 -228 0 -18 15 -13 128 40 70
33 215 101 322 151 107 50 202 98 211 107 22 22 34 71 17 71 -7 0 -148 -64
-313 -141z"/>
<path d="M8555 2939 c-307 -143 -365 -179 -365 -229 0 -19 2 -20 28 -6 15 8
131 62 257 121 127 59 262 123 301 141 78 36 88 46 98 87 4 19 2 27 -6 27 -7
0 -148 -64 -313 -141z"/>
<path d="M9052 3027 c-31 -82 -37 -141 -18 -169 10 -14 16 -43 16 -80 0 -81
24 -255 75 -548 61 -351 72 -444 54 -466 -34 -41 -138 -57 -222 -33 -43 12
-104 68 -119 110 -5 16 -14 26 -19 23 -13 -8 -35 -62 -43 -109 -4 -22 -9 -48
-12 -57 -4 -12 12 -36 47 -73 l52 -56 -17 -57 c-42 -134 -164 -281 -298 -355
-110 -62 -200 -82 -371 -81 -118 0 -145 -2 -135 -13 26 -25 369 -103 456 -103
99 0 261 146 337 304 45 95 75 192 75 244 0 17 4 34 10 37 5 3 48 10 95 16
117 13 172 40 197 95 44 100 45 321 2 559 -24 128 -63 374 -70 435 -3 30 -9
76 -13 101 -6 37 -4 48 9 57 9 5 25 37 35 71 l18 61 -41 35 c-22 20 -47 51
-53 70 -7 19 -16 35 -20 35 -4 0 -16 -24 -27 -53z"/>
<path d="M6356 2945 c-10 -22 -24 -67 -33 -100 -19 -72 -11 -163 43 -472 90
-519 104 -611 110 -708 4 -58 11 -105 16 -105 5 0 14 12 20 28 17 37 16 304
-1 417 -7 50 -32 223 -56 385 -24 162 -49 354 -56 425 -6 72 -15 139 -19 150
-6 17 -10 15 -24 -20z"/>
<path d="M9402 2923 c-46 -124 -45 -190 9 -498 94 -540 119 -702 119 -764 0
-109 19 -135 39 -55 27 106 17 283 -34 614 -56 357 -74 490 -85 615 -7 72 -15
134 -19 138 -5 5 -18 -18 -29 -50z"/>
<path d="M11295 2946 c-40 -93 -49 -161 -36 -270 14 -126 43 -303 81 -506 40
-211 68 -396 76 -512 4 -54 10 -98 14 -98 14 0 31 64 37 140 7 87 -7 246 -43
485 -65 440 -74 508 -85 625 -6 69 -15 136 -19 150 -8 24 -8 24 -25 -14z"/>
<path d="M7724 2862 c-37 -24 -70 -67 -79 -105 -8 -32 -2 -34 32 -7 22 17 40
20 112 19 47 -1 99 -4 115 -8 l28 -6 -54 -52 c-30 -28 -93 -71 -139 -95 -81
-41 -83 -43 -50 -46 19 -2 72 9 119 23 97 30 123 53 185 157 66 111 54 124
-126 134 -100 5 -115 3 -143 -14z"/>
<path d="M10751 2798 c-4 -13 -14 -47 -21 -76 -6 -29 -20 -62 -29 -74 -15 -18
-22 -19 -47 -11 -28 10 -29 11 -26 70 6 99 -23 93 -53 -12 -23 -79 -61 -117
-112 -113 -36 3 -38 5 -41 42 -2 21 2 52 9 68 17 41 2 49 -27 13 -42 -53 -51
-160 -18 -212 28 -44 116 -25 167 36 l25 30 51 -16 c49 -16 52 -16 79 3 43 32
64 85 69 178 4 56 2 85 -6 90 -6 4 -15 -2 -20 -16z"/>
<path d="M5753 2733 c-21 -92 -39 -115 -80 -104 -27 7 -28 10 -28 72 0 78 -21
88 -42 19 -37 -117 -64 -150 -123 -150 -45 0 -59 35 -38 100 18 55 10 64 -21
24 -44 -56 -52 -174 -14 -216 34 -37 128 -11 166 47 20 31 21 31 51 16 39 -19
89 -19 112 0 40 33 74 171 59 240 -11 47 -22 34 -42 -48z"/>
<path d="M8857 2803 c-3 -5 -13 -37 -22 -73 -22 -85 -31 -100 -60 -100 -50 0
-55 7 -48 76 5 53 3 64 -9 64 -16 0 -25 -18 -53 -107 -19 -61 -54 -93 -100
-93 -27 0 -35 5 -42 28 -9 26 -4 66 12 106 15 36 -19 11 -42 -30 -38 -68 -36
-172 3 -201 41 -30 121 -3 162 54 l19 26 45 -18 c62 -23 94 -8 127 59 27 54
43 198 23 210 -6 3 -13 3 -15 -1z"/>
<path d="M15390 2704 c-43 -18 -122 -125 -101 -138 5 -3 21 4 35 15 24 19 37
21 131 17 57 -2 107 -7 112 -12 14 -14 -97 -106 -178 -147 -72 -36 -98 -59
-66 -59 27 0 142 31 185 51 49 21 90 66 135 149 39 71 41 87 15 104 -24 15
-239 31 -268 20z"/>
<path d="M15891 2669 c-6 -18 -16 -72 -22 -121 -14 -113 -4 -143 52 -160 34
-10 45 -21 83 -87 79 -136 166 -346 166 -401 0 -44 -21 -53 -108 -48 -87 5
-163 37 -219 91 -29 27 -33 37 -33 84 0 39 -4 53 -14 53 -14 0 -25 -20 -80
-145 -36 -79 -51 -95 -95 -95 -35 0 -118 34 -154 63 -17 14 -17 20 -6 74 12
59 9 93 -10 93 -5 0 -32 -42 -60 -94 -56 -103 -102 -150 -166 -167 -52 -15
-165 -14 -210 1 -49 16 -58 38 -39 95 22 62 8 77 -38 42 -86 -65 -300 -153
-498 -206 -119 -32 -413 -85 -535 -97 -38 -3 -79 -9 -90 -11 -11 -3 -182 -7
-380 -9 -263 -2 -397 1 -495 12 -399 42 -526 95 -675 279 -41 51 -90 103 -109
114 -66 41 -153 16 -234 -67 -60 -62 -91 -125 -105 -214 -11 -69 -13 -72 -85
-149 -108 -115 -262 -212 -448 -280 -154 -57 -77 -75 142 -34 82 16 180 55
241 96 52 36 132 133 173 210 l30 58 93 -44 c51 -25 121 -51 155 -60 55 -14
64 -14 91 -1 16 9 39 31 51 51 22 36 24 36 71 3 42 -28 225 -86 329 -103 401
-65 1039 -61 1460 11 279 47 531 121 672 196 40 21 63 29 65 21 22 -65 111
-98 242 -90 102 6 181 33 239 82 l41 35 45 -28 c87 -56 192 -67 238 -25 12 10
37 43 56 73 19 30 36 57 38 59 2 2 21 -12 42 -31 102 -92 259 -141 346 -108
35 13 64 76 77 167 26 186 -46 412 -228 715 -79 131 -87 139 -102 97z m-3858
-743 c41 -17 112 -97 127 -143 7 -19 10 -36 8 -38 -12 -13 -170 43 -220 78
-37 25 -35 49 7 86 41 36 36 35 78 17z"/>
<path d="M7251 2533 c-18 -65 -13 -90 34 -158 58 -86 78 -155 80 -278 0 -53 5
-98 10 -100 19 -4 44 97 44 178 1 97 -20 189 -60 269 -26 54 -80 126 -93 126
-3 0 -10 -17 -15 -37z"/>
<path d="M10931 2488 c-29 -152 -25 -174 84 -550 67 -235 74 -267 53 -269
-103 -10 -210 45 -262 133 -28 49 -76 211 -100 343 -20 108 -50 229 -66 270
l-12 30 -9 -24 c-5 -13 -14 -53 -19 -90 -9 -57 -7 -85 14 -202 28 -151 56
-329 56 -358 0 -30 -80 -112 -135 -137 -52 -25 -116 -31 -158 -15 -38 15 -96
70 -120 115 -21 39 -22 54 -23 273 0 128 -3 236 -7 240 -4 3 -11 2 -16 -3 -14
-13 -51 -130 -51 -157 0 -30 -14 -42 -125 -107 -157 -91 -209 -134 -261 -211
-43 -66 -93 -169 -94 -195 0 -5 14 -23 31 -40 l30 -29 148 0 148 0 56 43 c31
24 59 52 62 63 10 29 21 23 34 -19 36 -107 121 -172 227 -172 113 0 190 57
254 187 l32 64 28 -39 c56 -77 154 -143 246 -163 45 -10 57 -10 77 4 35 23 66
93 84 192 15 80 15 92 -2 178 -10 51 -37 162 -61 247 -23 86 -56 209 -73 275
-30 121 -47 175 -55 175 -3 0 -9 -24 -15 -52z m-781 -525 c1 -5 3 -58 6 -119
l5 -110 -38 -17 c-57 -25 -130 -36 -208 -30 -154 11 -156 43 -5 118 94 47 184
108 207 140 18 24 33 32 33 18z"/>
<path d="M7895 2432 c-55 -26 -103 -76 -131 -137 -22 -47 -30 -75 -20 -75 3 0
20 9 38 19 53 32 167 37 262 12 84 -22 266 -104 266 -119 0 -6 -28 -13 -62
-17 -121 -14 -354 -55 -403 -73 -70 -24 -131 -89 -187 -197 -26 -50 -56 -99
-67 -109 -33 -30 -92 -45 -180 -46 -144 0 -176 18 -237 139 l-27 54 -20 -39
c-11 -21 -28 -62 -38 -91 l-19 -51 50 -104 c102 -215 95 -270 -52 -380 -351
-264 -948 -406 -1549 -370 -505 30 -931 141 -1364 352 -77 38 -187 98 -245
134 -61 38 -109 61 -114 56 -12 -12 145 -182 248 -268 97 -82 164 -120 351
-200 622 -266 1298 -330 1944 -186 327 73 676 239 801 382 78 88 119 205 120
338 l0 61 93 0 c121 0 194 21 245 71 22 20 44 46 49 56 10 19 11 19 39 -1 85
-60 237 -109 282 -92 135 51 144 291 15 384 -23 16 -42 33 -42 36 -1 4 25 12
57 18 146 30 272 43 452 48 171 5 208 3 306 -16 61 -11 116 -21 123 -21 6 0
28 34 48 75 44 88 41 95 -47 95 -138 0 -284 42 -510 146 -235 108 -287 126
-365 131 -54 3 -79 -1 -110 -15z m-14 -571 c25 -15 60 -50 77 -77 30 -44 31
-49 15 -55 -38 -14 -114 9 -180 53 -48 33 -54 57 -21 88 30 27 56 25 109 -9z"/>
<path d="M4568 2260 c-68 -20 -114 -63 -157 -147 -26 -53 -28 -78 -3 -68 9 3
46 13 82 22 74 17 141 12 228 -18 97 -32 274 -107 265 -112 -4 -3 -30 -12 -58
-20 -27 -8 -122 -43 -210 -77 -139 -55 -168 -63 -225 -63 -78 0 -131 14 -176
45 -32 22 -33 25 -28 74 9 70 -7 77 -59 26 -97 -95 -382 -188 -740 -242 -228
-34 -457 -50 -732 -50 -465 -1 -751 37 -925 122 -64 31 -93 57 -253 232 -57
61 -67 69 -109 73 -120 14 -268 -141 -285 -296 -5 -53 -12 -67 -58 -123 -99
-119 -249 -218 -452 -299 -88 -35 -108 -48 -95 -61 11 -11 178 7 260 28 106
28 194 78 260 148 33 36 73 87 88 113 15 27 33 58 41 70 l13 23 80 -40 c85
-42 201 -78 237 -72 21 3 76 57 85 82 3 9 17 4 48 -15 169 -107 580 -163 1113
-152 149 3 286 8 302 11 17 3 91 12 165 20 423 48 828 163 920 261 l23 25 66
-63 c37 -34 91 -75 120 -91 l53 -28 63 17 c35 9 97 36 137 59 40 23 113 66
161 94 117 68 203 101 310 120 78 14 108 14 245 3 248 -22 223 -26 249 44 39
107 47 101 -134 108 -222 8 -331 34 -518 122 -190 89 -317 119 -397 95z
m-3140 -340 c23 -16 53 -47 67 -68 28 -42 49 -102 36 -102 -24 0 -167 53 -201
75 -48 31 -51 55 -11 96 37 37 58 37 109 -1z"/>
<path d="M6865 2101 c-19 -39 -35 -72 -35 -74 0 -6 141 -100 144 -96 13 18 69
139 66 142 -3 2 -35 25 -72 51 l-67 47 -36 -70z"/>
<path d="M5187 1592 c-220 -103 -263 -130 -273 -175 l-6 -28 53 24 c287 129
397 182 415 200 22 22 41 77 27 76 -5 0 -101 -44 -216 -97z"/>
<path d="M15761 1541 c-22 -38 -41 -73 -41 -78 0 -16 132 -107 138 -96 4 5 27
40 51 77 24 37 42 68 40 69 -23 18 -141 97 -143 97 -2 0 -22 -31 -45 -69z"/>
<path d="M4525 1441 c-19 -39 -35 -73 -35 -75 0 -8 126 -96 137 -96 9 0 79
138 72 144 -2 1 -34 24 -71 50 l-67 47 -36 -70z"/>
<path d="M4289 1395 c-16 -35 -29 -69 -29 -75 0 -8 131 -103 136 -97 1 1 18
34 37 73 l36 71 -68 47 c-37 25 -71 46 -75 46 -4 0 -20 -29 -37 -65z"/>
<path d="M1459 1327 c-120 -56 -226 -110 -237 -120 -22 -20 -46 -77 -33 -77
18 0 467 212 482 228 22 23 34 72 17 71 -7 0 -110 -46 -229 -102z"/>
<path d="M12170 1361 c-318 -148 -320 -149 -337 -186 -9 -19 -14 -37 -11 -41
3 -3 113 43 243 103 192 87 239 113 251 135 15 29 19 58 7 57 -5 0 -73 -31
-153 -68z"/>
<path d="M9850 1293 c-226 -105 -280 -140 -280 -183 0 -24 -26 -34 265 100
110 50 208 98 217 107 15 14 35 70 26 77 -1 2 -104 -43 -228 -101z"/>
<path d="M15829 1266 c-119 -56 -228 -109 -243 -119 -25 -17 -50 -61 -44 -78
2 -4 108 40 237 99 238 109 277 135 269 179 -3 18 -25 9 -219 -81z"/>
<path d="M7505 1119 c-82 -39 -168 -79 -190 -89 -201 -93 -274 -131 -297 -154
-27 -28 -44 -63 -35 -72 2 -3 94 38 203 89 110 52 251 118 314 147 63 29 125
62 137 74 23 22 42 76 27 76 -5 0 -76 -32 -159 -71z"/>
</g>
</svg>
